<?xml version="1.0" encoding="utf-8"?><!--Generator: Adobe Illustrator 17.1.0, SVG Export Plug-In . SVG Version: 6.00 Build 0)--><!DOCTYPE svg PUBLIC "-//W3C//DTD SVG 1.1//EN" "http://www.w3.org/Graphics/SVG/1.1/DTD/svg11.dtd"><svg version="1.1" id="Слой_1" xmlns="http://www.w3.org/2000/svg" xmlns:xlink="http://www.w3.org/1999/xlink" x="0" y="0" viewBox="0 0 545.6 501.7" xml:space="preserve"><path fill="#4C567A" d="M.8 420.6c-4.4 16.2 9.8 32.4 26 37.6 16.1 5.2 33.6 2.8 50.6 2.6 17-.2 35.6 2.5 46.9 15 3.8 4.2 6.6 9.3 10.5 13.5 11.4 12 30.1 13.2 46.7 12.1 15.7-1.1 31.5-3.7 46.1-9.6 17.4-7.1 32.5-18.6 49.5-26.4 17-7.8 37.8-11.5 54.1-2.5 7.9 4.3 14.2 11.3 22.6 14.7 11.9 4.8 25.6 1.3 38.3 3 10.4 1.4 20 6.1 29.9 9.5 25 8.5 53.4 8.2 77.2-3.1 23.8-11.4 42.2-34.3 45.6-60.2 3.4-25.9-9.6-53.7-32.8-66.1-11.3-6-24.2-8.3-36.8-10.3-73.3-11.2-147.7-12.6-221.7-10.3-37.4 1.2-74.8 3.3-112.2 5.6-28.5 1.8-60.4 1.8-86.3 15.6-18.6 10-48.7 39.2-54.2 59.3z"/><path fill="#B5BDE9" d="M169.2 133.4c-4.2-8 11.3-14.1 16.1-21.8 1.4-2.2 2.7-4.4 3.1-6.9.4-2.5-.5-5.4-2.7-6.7-3.3-1.9-7.7.6-11.2-.9-3-1.3-4.1-5.2-3.8-8.4.4-4.9 2.9-9.3 5.8-13.2 3.5-4.6 8.8-10.5 15.3-8.5 8.4 2.6 4.1 12 8.5 17.4 6.7 8.3 16.2-2.1 19.1-8.1 2-4.1 3.5-8.4 6.4-11.9 3.2-3.9 14 7.3 16.4 9.9.4.4.8.9 1 1.4.4 1.6-1.5 2.9-3.1 3.4-2.8.9-5.8 1.5-8.4 2.9-6.6 3.5-7.7 11.7-5.8 18.3 1.5 5.3 6.5 9.5 12 9.5 4.1 0 8.1-2.5 10.1-6.1 1.9-3.4.3-7.2 1.7-10.6 1.1-2.5 4-4 6.7-4 6.3-.1 12.6 5.1 16.4 9.6l-42.4 52.7s-13 21.9-34 7.7c-.1-.1-20.8-13.4-27.2-25.7zM90.8 355.6c4.2-12.7.6-26.5-5.6-38.4-6.2-11.8-14.9-22.4-21.8-33.9-2.6-4.4-5-9.4-3.5-14.3.9-3 3.3-5.5 4.7-8.3 3-5.9 1.9-12.8.7-19.2-3.1-16.6-6.1-33.3-9.2-49.9-.5-2.9-1.1-6-.2-8.8 2.2-7.7 13.4-12.5 12.1-20.3-1.3-7.6-14.3-11.1-12.9-18.7.4-2.2 2.1-4.1 3.9-5.6 7.2-6 18.9-7.8 26.5-2.3 8.3 6.1 8.6 17.8 6.2 27.4-2.4 9.7-6.7 19.4-5 29.1 3.5 19 28.9 31 28 50.4-.6 12.2-12 23.1-9.8 35.2 1.5 7.7 8.2 13.4 14.1 18.8 5.9 5.5 11.8 12.4 10.9 20.2-.7 5.6-4.8 10.6-4.6 16.2.2 6.4 5.8 11.4 8.4 17.3 4.1 9.4-.1 20.6-7.6 28.2-6.8 6.9-19.8 17-30 11-14.4-8.6-9.3-22-5.3-34.1z"/><path fill="#6D79AA" d="M93.7 392.9c3.3-7.7 11.5-12.2 15.5-19.5 3.6-6.5 3.1-15.1-1.1-21.2-5.2-7.6-15.8-12.2-16.5-21.4-.6-7.8 6.5-14.5 6.3-22.3-.2-7.2-6.5-12.6-12.2-17.1-5.6-4.6-11.6-10.6-10.6-17.8.9-7.1 8.2-11.8 10.1-18.7 2-7.4-2.6-15-8.1-20.4-5.4-5.4-12-10.1-15.2-17.1-3-6.5-2.7-14-3.5-21.1-.9-8.2-3.6-16.3-7.6-23.5-3.6-6.4-8.7-12.4-15.7-14.5-7-2.1-15.9 1.2-17.8 8.3-2 7.4 3.9 14.3 9.3 19.8 5.3 5.5 7.8 14.1 8.8 21.6 1.7 12.7-16.9 19.5-18.8 32.1-1.2 7.9 4.5 15 10.3 20.5 5.7 5.5 12.3 11.2 13.5 19.1 2.4 14.8-15.4 28.5-10.5 42.6 4.2 12 22.7 16.5 22.7 29.2 0 4.5-2.6 8.5-3.8 12.9-3.1 11.2 5 24.1 16.3 26.3 8.5 1.6 20.4 4.2 28.6 2.2z"/><g fill="#FFF"><path d="M82.8 377.3c-4.2-7.1-5.3-14.3-3.1-19.8.4-1 .9-2 1.5-2.9.8-1.5 1.7-3.1 2.1-4.8.6-2.6.3-5.6-1.1-9.1-1.5-3.7-3.6-7-6-10.2l19.3-29.6-.8-.5-19.1 29.3c-1.4-1.8-2.8-3.5-4.3-5.2-1.7-2-3.4-4.1-5-6.2-3.9-5.2-10-15.5-6.5-25 .5-1.5 1.3-2.9 2-4.2.7-1.4 1.5-2.8 2.1-4.3 3.7-9.9-2.3-20.6-7.8-28.3l16.6-26.1-.8-.5-16.4 25.8c-.2-.3-.4-.6-.6-.8l-.3-.4c-2.4-3.2-4.9-6.5-6-10.4-1.6-5.3-.6-10.8.6-16.6.7-3.4 1.3-6.8 1.4-10.3.3-10-4.2-19-10.3-28.3.1-7.8 1.1-19.1 2.3-26.8l-1-.2c-1.1 7.3-2.1 17.7-2.3 25.5-1.1-1.6-2.2-3.3-3.4-4.9-2.7-3.8-5.1-7.4-7.5-10.9-2.4-3.5-4.8-7.1-7.5-10.9l-.8.6c2.7 3.8 5.1 7.4 7.5 10.9 2.4 3.5 4.8 7.1 7.5 10.9 8.1 11.5 14.7 22 14.4 34.1 0 1.9-.3 3.7-.6 5.6L35.6 212l-.6.8 13.8 11-.6 3.4c-.2.8-.3 1.6-.5 2.4l-14.7-12-.6.8 15.2 12.3c-.8 4.5-1.2 9.1.1 13.5 1.2 4 3.7 7.4 6.2 10.7l.3.4c5.6 7.6 12.7 18.8 8.9 29-.5 1.4-1.3 2.8-2 4.2-.8 1.4-1.5 2.8-2.1 4.3-.1.3-.2.6-.3 1L41 283.5l-.5.9 17.9 10.4c-2.3 9.4 3.4 19 7.2 24 1.6 2.1 3.4 4.2 5 6.2 1.3 1.5 2.6 3.1 3.8 4.7l-44.3-8-.2 1 45.4 8.2c2.4 3.1 4.5 6.4 6 10.1 1.3 3.3 1.7 6.1 1.1 8.5-.4 1.6-1.2 3-2 4.6-.5 1-1.1 2-1.5 3-2.4 5.8-1.3 13.4 3.1 20.7 1.8 3.1 4 5.4 6.2 7.7 2.1 2.3 4.3 4.6 6.1 7.7l.9-.5c-1.8-3.1-4.1-5.5-6.2-7.9-2.2-2.2-4.4-4.5-6.2-7.5z"/><path transform="rotate(123.15 78.68 307.42)" d="M61.7 306.9h33.9v1H61.7z"/><path transform="scale(-1) rotate(5.56 7621.47 -1307.47)" d="M48.2 369.6h30.5v1H48.2z"/></g><path fill="#4C567A" d="M395 236.4c-2.6 0-5.2-.1-7.7-.2-.3 0-.5-.2-.4-.5 0-.3.3-.5.5-.4 2.5.2 5.1.2 7.6.2.3 0 .5.2.5.5-.1.2-.3.4-.5.4zm7.7-.2c-.3 0-.5-.2-.5-.4 0-.3.2-.5.4-.5 2.5-.2 5.1-.4 7.6-.7.2 0 .5.1.5.4 0 .3-.2.5-.4.5-2.5.2-5 .5-7.6.7zm-23.1-.8c-2.6-.3-5.2-.8-7.7-1.2-.3-.1-.4-.3-.4-.6.1-.3.3-.4.6-.4 2.5.5 5 .9 7.6 1.2.3 0 .4.3.4.5-.1.4-.3.5-.5.5zm38.3-1.2c-.2 0-.4-.2-.5-.4-.1-.3.1-.5.4-.6 2.5-.5 5-1.1 7.5-1.7.3-.1.5.1.6.3.1.3-.1.5-.3.6-2.5.7-5.1 1.3-7.7 1.8.1 0 .1 0 0 0zm-53.4-1.7h-.1c-2.5-.7-5-1.4-7.4-2.2-.3-.1-.4-.4-.3-.6.1-.3.4-.4.6-.3 2.4.8 4.9 1.6 7.3 2.2.3.1.4.3.3.6 0 .1-.2.3-.4.3zm68.3-2.3c-.2 0-.4-.1-.5-.3-.1-.3 0-.5.3-.6 2.4-.8 4.8-1.7 7.2-2.7.2-.1.5 0 .6.3.1.2 0 .5-.3.6-2.4 1-4.8 1.9-7.2 2.7h-.1zm-82.9-2.7h-.2c-2.4-1-4.7-2.1-7.1-3.2-.2-.1-.3-.4-.2-.6.1-.2.4-.3.6-.2 2.3 1.1 4.6 2.2 7 3.2.2.1.4.4.3.6 0 .1-.2.2-.4.2zm97.1-3.2c-.2 0-.3-.1-.4-.3-.1-.2 0-.5.2-.6 2.3-1.1 4.6-2.3 6.8-3.6.2-.1.5-.1.7.2.1.2.1.5-.2.7-2.2 1.3-4.5 2.5-6.8 3.6h-.3zm-110.9-3.6c-.1 0-.2 0-.2-.1-2.2-1.3-4.4-2.7-6.6-4.1-.2-.1-.3-.4-.1-.7.1-.2.4-.3.7-.1 2.1 1.4 4.3 2.8 6.5 4.1.2.1.3.4.2.7-.2.1-.4.2-.5.2zm124.2-4.1c-.2 0-.3-.1-.4-.2-.1-.2-.1-.5.1-.7 2.1-1.4 4.2-2.9 6.2-4.5.2-.2.5-.1.7.1.2.2.1.5-.1.7-2 1.6-4.2 3.1-6.3 4.5 0 .1-.1.1-.2.1zm-137-4.5c-.1 0-.2 0-.3-.1-2-1.6-4.1-3.2-6-4.9-.2-.2-.2-.5 0-.7.2-.2.5-.2.7 0 1.9 1.7 3.9 3.3 5.9 4.9.2.2.2.5.1.7-.1.1-.3.1-.4.1zm149.2-4.9c-.1 0-.3-.1-.4-.2-.2-.2-.2-.5 0-.7 1.9-1.7 3.8-3.4 5.6-5.2.2-.2.5-.2.7 0 .2.2.2.5 0 .7-1.8 1.8-3.7 3.6-5.6 5.3-.1.1-.2.1-.3.1zM311.7 202c-.1 0-.2 0-.3-.1-1.8-1.8-3.6-3.7-5.3-5.6-.2-.2-.2-.5 0-.7.2-.2.5-.2.7 0 1.7 1.9 3.4 3.8 5.2 5.6.2.2.2.5 0 .7-.1 0-.2.1-.3.1zm171.7-5.7c-.1 0-.2 0-.3-.1-.2-.2-.2-.5 0-.7 1.7-1.9 3.3-3.9 4.9-5.9.2-.2.5-.2.7-.1.2.2.2.5.1.7-1.6 2-3.2 4-4.9 6-.2.1-.4.1-.5.1zm-181.9-5.9c-.1 0-.3-.1-.4-.2-1.6-2-3.1-4.1-4.5-6.3-.1-.2-.1-.5.1-.7.2-.1.5-.1.7.1 1.4 2.1 2.9 4.2 4.5 6.2.2.2.1.5-.1.7-.1.2-.2.2-.3.2zm191.3-6.3c-.1 0-.2 0-.3-.1-.2-.1-.3-.4-.1-.7 1.4-2.1 2.8-4.3 4.1-6.5.1-.2.4-.3.7-.2.2.1.3.4.2.7-1.3 2.2-2.7 4.4-4.1 6.6-.2.1-.4.2-.5.2zM293 177.6c-.2 0-.3-.1-.4-.2-1.3-2.2-2.5-4.5-3.7-6.8-.1-.2 0-.5.2-.6.2-.1.5 0 .6.2 1.1 2.3 2.3 4.6 3.6 6.8.1.2.1.5-.2.7 0-.1-.1-.1-.1-.1zm207.5-6.8h-.2c-.2-.1-.3-.4-.2-.6 1.1-2.3 2.2-4.6 3.2-7 .1-.2.4-.4.6-.3.2.1.4.4.3.6-1 2.4-2.1 4.7-3.2 7.1-.2.1-.3.2-.5.2zm-214.4-6.9c-.2 0-.4-.1-.4-.3-1-2.4-1.9-4.8-2.7-7.2-.1-.3 0-.5.3-.6.3-.1.5 0 .6.3.8 2.4 1.7 4.8 2.7 7.2.1.2 0 .5-.3.6 0-.1-.1 0-.2 0zm220.3-7.4h-.2c-.3-.1-.4-.4-.3-.6.8-2.4 1.6-4.9 2.2-7.3.1-.3.3-.4.6-.3.3.1.4.3.3.6-.7 2.5-1.4 5-2.2 7.4 0 .1-.2.2-.4.2zm-225.2-7.2c-.2 0-.4-.1-.5-.4-.7-2.5-1.3-5-1.8-7.5-.1-.3.1-.5.4-.6.3-.1.5.1.6.4.5 2.5 1.1 5 1.7 7.5.1.3-.1.5-.3.6h-.1zm229.2-7.7c-.1 0-.1 0 0 0-.4-.1-.5-.3-.5-.6.5-2.5.9-5.1 1.2-7.6 0-.3.3-.4.5-.4.3 0 .4.3.4.5-.3 2.5-.8 5.1-1.2 7.6 0 .4-.2.5-.4.5zm-232.2-7.4c-.2 0-.4-.2-.5-.4-.3-2.5-.6-5.1-.8-7.7 0-.3.2-.5.4-.5.3 0 .5.2.5.4.2 2.5.4 5.1.8 7.6.1.3-.1.6-.4.6zm234.2-7.8s-.1 0 0 0c-.3 0-.5-.2-.5-.5.2-2.4.3-5 .2-7.7v-.3c0-.3.2-.5.5-.5s.5.2.5.5v.3c0 2.6-.1 5.2-.2 7.7-.1.3-.3.5-.5.5zm-235.2-7.6c-.3 0-.5-.2-.5-.5v-.2c0-2.5.1-5.1.2-7.6 0-.3.3-.5.5-.4.3 0 .5.2.4.5-.2 2.5-.2 5-.2 7.5v.2c0 .3-.2.5-.4.5zm235.1-8.1c-.3 0-.5-.2-.5-.4-.2-2.5-.4-5.1-.8-7.6 0-.3.2-.5.4-.5.3 0 .5.1.5.4.3 2.5.6 5.1.8 7.7.1.1-.1.4-.4.4.1 0 .1 0 0 0zm-234.2-7.2c-.3 0-.5-.3-.5-.5.3-2.5.7-5.1 1.2-7.6.1-.3.3-.4.6-.4.3.1.4.3.4.6-.5 2.5-.9 5-1.2 7.6 0 .1-.2.3-.5.3zm232.2-8.1c-.2 0-.4-.2-.5-.4-.5-2.5-1.1-5-1.8-7.5-.1-.3.1-.5.3-.6.3-.1.5.1.6.3.7 2.5 1.3 5 1.8 7.5.1.4 0 .7-.4.7.1 0 0 0 0 0zm-229.2-7h-.1c-.3-.1-.4-.3-.3-.6.7-2.5 1.4-5 2.2-7.4.1-.3.4-.4.6-.3.3.1.4.4.3.6-.8 2.4-1.6 4.9-2.2 7.3-.1.2-.3.4-.5.4zm225.2-7.8c-.2 0-.4-.1-.5-.3-.8-2.4-1.7-4.8-2.7-7.2-.1-.2 0-.5.3-.6.2-.1.5 0 .6.3.8 1.6 1.8 4.3 2.7 7.2.1.3 0 .5-.3.6h-.1zM286 73.8h-.2c-.2-.1-.4-.4-.3-.6 1-2.4 2.1-4.7 3.2-7.1.1-.2.4-.3.6-.2.2.1.3.4.2.6-1.1 2.3-2.2 4.6-3.2 7 .1.2-.1.3-.3.3zm214.4-7.4c-.2 0-.3-.1-.4-.3-1.1-2.3-2.4-4.5-3.6-6.7-.1-.2-.1-.5.2-.7.2-.1.5-.1.7.2 1.3 2.2 2.5 4.5 3.7 6.8.1.2 0 .5-.2.6-.3.1-.3.1-.4.1zm-207.6-6.5c-.1 0-.2 0-.2-.1-.2-.1-.3-.4-.2-.7 1.3-2.2 2.7-4.4 4.1-6.6.1-.2.4-.3.7-.1.2.1.3.4.1.7-1.4 2.1-2.8 4.3-4.1 6.5 0 .3-.2.3-.4.3zm199.9-6.8c-.2 0-.3-.1-.4-.2-1.4-2.1-2.9-4.2-4.5-6.2-.2-.2-.1-.5.1-.7.2-.2.5-.1.7.1 1.6 2 3.1 4.1 4.5 6.3.1.2.1.5-.1.7h-.3zm-191.3-6c-.1 0-.2 0-.3-.1-.2-.2-.3-.5-.1-.7 1.6-2 3.2-4.1 4.9-6 .2-.2.5-.2.7 0 .2.2.2.5 0 .7-1.7 1.9-3.3 3.9-4.9 5.9 0 .2-.2.2-.3.2zm181.8-6.2c-.1 0-.3-.1-.4-.2-1.7-1.9-3.5-3.8-5.3-5.6-.2-.2-.2-.5 0-.7.2-.2.5-.2.7 0 1.8 1.8 3.6 3.7 5.3 5.6.2.2.2.5 0 .7 0 .2-.1.2-.3.2zm-171.7-5.4c-.1 0-.2 0-.3-.1-.2-.2-.2-.5 0-.7 1.8-1.8 3.7-3.6 5.6-5.3.2-.2.5-.2.7 0 .2.2.2.5 0 .7-1.9 1.7-3.8 3.4-5.6 5.3-.1.1-.2.1-.4.1zM472.3 30c-.1 0-.2 0-.3-.1-1.9-1.7-3.9-3.3-5.9-4.9-.2-.2-.3-.5-.1-.7.2-.2.5-.2.7-.1 2 1.6 4.1 3.2 6 4.9.2.2.2.5 0 .7-.1.2-.2.2-.4.2zm-149.2-4.6c-.1 0-.3-.1-.4-.2-.2-.2-.1-.5.1-.7 2-1.6 4.1-3.1 6.3-4.5.2-.1.5-.1.7.1.1.2.1.5-.1.7-2.1 1.4-4.2 2.9-6.2 4.5-.2 0-.3.1-.4.1zm137-4.7c-.1 0-.2 0-.3-.1-2.1-1.4-4.3-2.8-6.5-4-.2-.1-.3-.4-.2-.7.1-.2.4-.3.7-.2 2.2 1.3 4.4 2.7 6.6 4.1.2.1.3.4.1.7-.1.1-.2.2-.4.2zm-124.2-3.9c-.2 0-.3-.1-.4-.2-.1-.2-.1-.5.2-.7 2.2-1.3 4.5-2.5 6.8-3.7.2-.1.5 0 .6.2.1.2 0 .5-.2.6-2.3 1.1-4.5 2.4-6.7 3.6-.2.2-.3.2-.3.2zM446.8 13h-.2c-2.3-1.1-4.6-2.2-7-3.2-.2-.1-.4-.4-.3-.6.1-.2.4-.4.6-.3 2.4 1 4.8 2.1 7.1 3.2.2.1.3.4.2.6-.1.2-.3.3-.4.3zm-97.2-3c-.2 0-.4-.1-.4-.3-.1-.2 0-.5.3-.6 2.4-1 4.8-1.9 7.2-2.7.2-.1.5 0 .6.3.1.3 0 .5-.3.6-2.4.8-4.8 1.7-7.2 2.7h-.2zm82.9-2.9h-.2c-2.4-.8-4.9-1.6-7.3-2.2-.3-.1-.4-.3-.3-.6.1-.3.3-.4.6-.3 2.5.7 5 1.4 7.4 2.2.3.1.4.4.3.6-.1.2-.3.3-.5.3zM364.2 5c-.2 0-.4-.1-.5-.4-.1-.3.1-.5.3-.6 2.5-.7 5-1.3 7.5-1.8.3-.1.5.1.6.4.1.3-.1.5-.4.6-2.5.5-5 1.1-7.5 1.7.1.1 0 .1 0 .1zm53.4-1.8c-2.6-.5-5.1-.9-7.7-1.2-.3 0-.4-.3-.4-.5 0-.3.3-.4.5-.4 2.5.3 5.1.7 7.6 1.2.3.1.4.3.4.6.1.1-.1.3-.4.3zM379.3 2c-.2 0-.4-.2-.5-.4 0-.3.1-.5.4-.5 2.5-.3 5.1-.6 7.7-.8.3 0 .5.2.5.4 0 .3-.2.5-.4.5-2.5.2-5.1.4-7.7.8zm23.1-.8c-.1 0-.1 0 0 0-2.5-.2-5-.2-7.5-.2h-.2c-.3 0-.5-.2-.5-.5s.2-.5.5-.5h.2c2.5 0 5 .1 7.5.2.3 0 .5.2.4.5 0 .3-.2.5-.4.5z"/><path fill="none" stroke="#E1C1F7" stroke-width="3" stroke-miterlimit="10" d="M510.5 181.2l-9.7-5c-.8-2.6-1.8-5.1-3.1-7.4l3.5-10.1c.1-.4 0-.9-.3-1.2l-9.1-8.8c-.3-.3-.8-.4-1.2-.3l-10.3 3.5c-2.1-1.1-4.2-2-6.5-2.7l-4.6-9.7c-.2-.4-.6-.7-1.1-.7h-12.6c-.4 0-.8.2-1 .6l-5 9.7c-2.5.8-4.8 1.8-7.1 2.9l-10.1-3.6c-.4-.2-.9 0-1.2.3l-8.9 9c-.3.3-.4.8-.3 1.2l3.4 10.4a40.5 40.5 0 00-2.8 6.8l-9.7 4.6c-.4.2-.7.6-.7 1.1v12.6c0 .4.2.8.6 1l9.7 5c.9 2.8 2 5.5 3.5 8l-3.3 10.2c-.1.4 0 .9.3 1.2l9.2 8.7c.3.3.8.4 1.2.3l10.3-3.6c1.9.9 3.8 1.7 5.8 2.3l4.6 9.7c.2.4.6.7 1.1.7h12.6c.4 0 .8-.2 1-.6l5-9.7c2.7-.8 5.3-1.9 7.7-3.3l10.2 3.4c.4.1.9 0 1.2-.3l8.8-9.1c.3-.3.4-.8.3-1.2l-3.6-10.3c1.3-2.6 2.2-4.9 2.5-6.2l9.7-4.6c.4-.2.7-.6.7-1.1v-12.6c-.1-.5-.3-.9-.7-1.1zm-48.9 36.9a29.7 29.7 0 110-59.4 29.7 29.7 0 010 59.4z"/><path fill="#B3B3FB" d="M513.7 263.5l-3.4-4.4c.2-1.4.2-2.8.2-4.1l3.8-4c.2-.2.2-.4.1-.6l-2.3-6.1c-.1-.2-.3-.4-.5-.4l-5.6-.6c-.7-.9-1.6-1.8-2.5-2.7v-5.5c0-.2-.1-.4-.4-.5l-5.9-2.8c-.2-.1-.4-.1-.6.1l-4.4 3.4c-1.3-.2-2.6-.2-3.9-.2l-3.9-3.9c-.2-.2-.4-.2-.6-.1l-6.1 2.2c-.2.1-.4.3-.4.5l-.7 5.6c-1 .8-1.9 1.6-2.8 2.6h-5.5c-.2 0-.4.1-.5.4l-2.8 5.9c-.1.2-.1.5.1.6l3.4 4.4c-.2 1.5-.3 3-.1 4.5l-3.8 4c-.2.2-.2.4-.1.6l2.4 6.1c.1.2.3.4.5.4l5.6.5c.7.8 1.4 1.6 2.2 2.4v5.5c0 .2.1.4.3.5l5.9 2.8c.2.1.4.1.6-.1l4.4-3.4c1.4.2 2.9.2 4.3.2l4 3.8c.2.2.4.2.6.1l6.1-2.4c.2-.1.4-.3.4-.5l.6-5.6c.9-.7 1.7-1.5 2.5-2.3h5.5c.2 0 .4-.1.5-.4l2.8-5.9c.1-.1.1-.4 0-.6zm-29.1 7.3a15.37 15.37 0 01-8.3-22.9c3.7-5.8 11-8.5 17.6-6.4a15.37 15.37 0 01-9.3 29.3z"/><g fill="#152144"><path d="M259.7 349h76.6v53.4h-76.6z"/><path d="M344.6 410.5h-93.3c-2.2 0-4.1-1.8-4.1-4.1 0-2.2 1.8-4.1 4.1-4.1h93.3c2.2 0 4.1 1.8 4.1 4.1 0 2.2-1.8 4.1-4.1 4.1z"/></g><path fill="#152144" d="M456.8 349H132.2c-2.4 0-4.3-1.9-4.3-4.3V134.4c0-2.4 1.9-4.3 4.3-4.3h324.6c2.4 0 4.3 1.9 4.3 4.3v210.3c-.1 2.4-2 4.3-4.3 4.3z"/><path fill="#DFDAF9" d="M143.2 142.9h303.1V336H143.2z"/><path fill="#F5F5F3" d="M247.5 243.3h95v89.2h-95z"/><path fill="#E7EAF7" d="M247.9 283.5h94.2V332h-94.2z"/><path fill="#2C7EEA" d="M247.9 305.1h15.3l10.6-10.9h20.9l15.9 21.8 31.5-27.1v5.2l-31.4 27.5-16-21.9h-20.9l-10.6 10.8-15.3.2z"/><path fill="#152144" d="M253 310.6V332h10v-21.4z"/><path fill="#FFCD33" d="M279.3 300.1H290V332h-10.7zM331.1 303.8V332h11v-37.9z"/><path fill="#B5BDE9" d="M247.7 248.4h94.8v3.8h-94.8z"/><path fill="#A0DAB1" d="M247.7 248.4h42.6v3.8h-42.6z"/><path fill="#B5BDE9" d="M247.7 255.9h94.8v3.8h-94.8z"/><path fill="#152144" d="M247.7 255.9h57v3.8h-57z"/><path fill="#B5BDE9" d="M247.7 263.8h94.8v3.8h-94.8z"/><path fill="#32598F" d="M247.7 263.8h23.6v3.8h-23.6z"/><path fill="#B5BDE9" d="M247.7 271.6h94.8v3.8h-94.8z"/><path fill="#904BE4" d="M247.7 271.6h47.4v3.8h-47.4z"/><path fill="#F8F8FA" d="M148.2 241.6h95V284h-95zM247.5 148.5h95v88.7h-95zM346.7 148.5h95v88.7h-95zM346.7 242.6h95v88.7h-95z"/><path fill="#E7EAF7" d="M148.2 148.5h95v88.7h-95z"/><path fill="#F8F8FA" d="M148.2 288.9h95v42.4h-95z"/><path fill="#B5BDE9" d="M407.8 254.5h27.5v1.5h-27.5zM407.8 257.9h27.5v1.5h-27.5zM407.8 261.2h27.5v1.5h-27.5zM407.8 264.6h27.5v1.5h-27.5zM407.8 267.9h27.5v1.5h-27.5zM407.8 271.3h27.5v1.5h-27.5z"/><g><path fill="#B5BDE9" d="M407.8 275h27.5v1.5h-27.5zM407.8 278.3h27.5v1.5h-27.5zM407.8 281.7h27.5v1.5h-27.5zM407.8 285h27.5v1.5h-27.5zM407.8 288.4h27.5v1.5h-27.5zM407.8 291.7h27.5v1.5h-27.5z"/></g><g><path fill="#A0DAB1" d="M375 247.7V272l19.3-14.8a24.4 24.4 0 00-19.3-9.5z"/><path fill="#FFCD33" d="M394.2 257.2L375 272v24.3c13.4 0 24.3-10.9 24.3-24.3-.1-5.6-1.9-10.7-5.1-14.8z"/><path fill="#D568DD" d="M350.7 272c0 13.4 10.9 24.3 24.3 24.3V272h-24.3z"/><path fill="#152144" d="M350.7 272H375v-24.3c-13.4 0-24.3 10.9-24.3 24.3z"/></g><g><path fill="#A0DAB1" d="M359.8 178.6h13.8v27h-13.8z"/><path fill="#FFCD33" d="M373.6 165.4h13.8v40.2h-13.8z"/><path fill="#152144" d="M401 173.2h13.8v32.5H401z"/><path fill="#904BE4" d="M414 164.6h13.8v41H414z"/><path fill="#00AEEE" d="M387.5 152.1h13.8v53.6h-13.8z"/></g><g><path fill="#B5BDE9" d="M351.7 211.9h86.4v1.8h-86.4zM351.7 215.9h86.4v1.8h-86.4zM351.7 219.8h86.4v1.8h-86.4zM351.7 223.8h86.4v1.8h-86.4zM351.7 227.8h86.4v1.8h-86.4zM351.7 231.8h86.4v1.8h-86.4z"/></g><g><path fill="#B5BDE9" d="M351.7 302.2h83.6v1.8h-83.6zM351.7 306.2h83.6v1.8h-83.6zM351.7 310.2h83.6v1.8h-83.6zM351.7 314.2h83.6v1.8h-83.6zM351.7 318.2h83.6v1.8h-83.6zM351.7 322.2h83.6v1.8h-83.6z"/></g><g><path fill="#6D79AA" d="M374.6 417.6c-3.4-4.2-6.7-8.5-10.1-12.7-2.1-2.6-4.3-5.5-4.3-8.9-.2-8.2 11.2-12 12.2-20.1.5-4.3-2.1-8.3-4.5-11.7-3-4.2-5.9-8.6-7.2-13.6-1.3-5.1-.5-11 3.2-14.5a7.1 7.1 0 015.1-2.1c1.2.1 2.4.5 3.5 1.1 5.2 2.8 8.9 7.9 11.2 13.5 2.3 5.6 3.3 11.7 4.4 17.7.6 3.6 1.2 7.4.3 11-1.4 5.3-6.1 9.5-5.8 15 .3 4.3 3.6 7.7 4.7 11.8 1.3 5.1-1.4 11.8-5.9 13.9l-6.8-.4z"/><path fill="#EFFAFE" d="M378.4 381.4c.7-1.7 1.1-3.5 1.3-5.4l.1.1c3-2.4 5.8-5.1 8.5-8l-.5-.5c-2.5 2.7-5.2 5.3-8 7.6.2-5.2-1.6-11.1-5.4-17.9-.6-1.1-1.2-2.2-1.9-3.3-3.5-6.1-7.1-12.3-7.4-19.3h-.7c.3 7.2 3.9 13.5 7.5 19.7.6 1.1 1.3 2.2 1.9 3.3 1.2 2.1 2.2 4.2 3 6.1h-9.4v.7h9.7c2.4 6.4 2.7 12 .7 16.5-.6 1.3-1.3 2.5-2.1 3.7-1.6-1.9-4.1-3-6.5-2.9v.7c2.3-.1 4.6.9 6.1 2.8-1.6 2.6-3.3 5.2-3.3 8.4 0 1.8.5 3.6 1.1 5.2l5.8 18.1.7-.2-3.6-11.2 9.1-5.6-.4-.6-8.9 5.5-1-3c2.5-2.2 5.2-4.1 8.1-5.6l-.3-.7c-2.9 1.5-5.6 3.4-8 5.5l-.7-2.3c-.5-1.6-1-3.3-1-5 0-3 1.6-5.4 3.2-8.1.8-1.3 1.7-2.8 2.3-4.3z"/><linearGradient id="SVGID_1_" gradientUnits="userSpaceOnUse" x1="373.62" y1="365.95" x2="409.58" y2="365.95"><stop offset="0" style="stop-color:#B5BDE9"/><stop offset="1" style="stop-color:#6D79AA"/></linearGradient><path fill="url(#SVGID_1_)" d="M391.3 415.8c4.2-5.1 8.5-10.2 12.7-15.2 2.6-3.1 5.4-6.6 5.4-10.7.2-9.8-14.1-14.3-15.4-24-.7-5.1 2.6-9.9 5.7-14 3.7-5 7.5-10.2 9.1-16.3 1.6-6 .6-13.2-4-17.3-1.7-1.6-4-2.7-6.4-2.5-1.5.1-3 .6-4.3 1.3-6.5 3.3-11.1 9.5-14 16.2-2.9 6.7-4.2 13.9-5.5 21.1-.8 4.3-1.6 8.9-.4 13.1 1.8 6.3 7.7 11.4 7.3 17.9-.3 5.1-4.6 9.2-5.9 14.1-1.7 6.1 1.7 14.1 7.5 16.6l8.2-.3z"/><path fill="#EFFAFE" d="M386.5 372.5c-.9-2-1.4-4.1-1.6-6.4l-.1.1c-3.8-2.9-7.4-6.1-10.7-9.5l.6-.6c3.1 3.3 6.5 6.3 10.1 9.1-.2-6.2 2-13.3 6.8-21.4l2.4-3.9c4.4-7.2 9-14.7 9.3-23.1h.9c-.3 8.6-5 16.2-9.4 23.5l-2.4 3.9c-1.5 2.5-2.7 5-3.7 7.3h11.9v.9h-12.2c-3.1 7.7-3.4 14.3-.9 19.7.7 1.5 1.6 3 2.6 4.5 2-2.3 5.1-3.6 8.2-3.4v.9c-2.9-.2-5.8 1.1-7.6 3.3 2 3.1 4.1 6.3 4.1 10 0 2.2-.7 4.3-1.3 6.3l-7.3 21.6-.8-.3 4.5-13.4-11.4-6.7.5-.8 11.2 6.6 1.2-3.6c-3.1-2.6-6.6-4.9-10.2-6.7l.4-.8c3.6 1.8 7 4 10.1 6.6l.9-2.8c.6-1.9 1.3-3.9 1.3-6 0-3.5-2-6.5-4.1-9.6-1.3-1.8-2.5-3.5-3.3-5.3z"/><path fill="#FFCD33" d="M404 415.4l-8 37.1h-21.4l-7.8-37.1z"/></g><g><path fill="#904BE4" d="M238.1 232.9h-4c-.3 0-.5-.2-.5-.5s.2-.5.5-.5h3.5v-3.6c0-.3.2-.5.5-.5s.5.2.5.5v4.1c0 .2-.3.5-.5.5zM225.7 232.9h-8.3c-.3 0-.5-.2-.5-.5s.2-.5.5-.5h8.3c.3 0 .5.2.5.5 0 .2-.2.5-.5.5zm-16.6 0h-8.3c-.3 0-.5-.2-.5-.5s.2-.5.5-.5h8.3c.3 0 .5.2.5.5 0 .2-.3.5-.5.5zm-16.7 0h-8.3c-.3 0-.5-.2-.5-.5s.2-.5.5-.5h8.3c.3 0 .5.2.5.5 0 .2-.2.5-.5.5zm-16.7 0h-8.3c-.3 0-.5-.2-.5-.5s.2-.5.5-.5h8.3c.3 0 .5.2.5.5 0 .2-.2.5-.5.5zM159.1 232.9h-4c-.3 0-.5-.2-.5-.5v-4.1c0-.3.2-.5.5-.5s.5.2.5.5v3.6h3.5c.3 0 .5.2.5.5 0 .2-.3.5-.5.5zM155.1 220.9c-.3 0-.5-.2-.5-.5v-7.8c0-.3.2-.5.5-.5s.5.2.5.5v7.8c0 .3-.3.5-.5.5zm0-15.6c-.3 0-.5-.2-.5-.5V197c0-.3.2-.5.5-.5s.5.2.5.5v7.8c0 .3-.3.5-.5.5zm0-15.6c-.3 0-.5-.2-.5-.5v-7.8c0-.3.2-.5.5-.5s.5.2.5.5v7.8c0 .3-.3.5-.5.5zm0-15.6c-.3 0-.5-.2-.5-.5v-7.8c0-.3.2-.5.5-.5s.5.2.5.5v7.8c0 .3-.3.5-.5.5zM155.1 158.5c-.3 0-.5-.2-.5-.5v-4.1c0-.3.2-.5.5-.5h4c.3 0 .5.2.5.5s-.2.5-.5.5h-3.5v3.6c0 .3-.3.5-.5.5zM225.7 154.4h-8.3c-.3 0-.5-.2-.5-.5s.2-.5.5-.5h8.3c.3 0 .5.2.5.5s-.2.5-.5.5zm-16.6 0h-8.3c-.3 0-.5-.2-.5-.5s.2-.5.5-.5h8.3c.3 0 .5.2.5.5s-.3.5-.5.5zm-16.7 0h-8.3c-.3 0-.5-.2-.5-.5s.2-.5.5-.5h8.3c.3 0 .5.2.5.5s-.2.5-.5.5zm-16.7 0h-8.3c-.3 0-.5-.2-.5-.5s.2-.5.5-.5h8.3c.3 0 .5.2.5.5s-.2.5-.5.5zM238.1 158.5c-.3 0-.5-.2-.5-.5v-3.6h-3.5c-.3 0-.5-.2-.5-.5s.2-.5.5-.5h4c.3 0 .5.2.5.5v4.1c0 .3-.3.5-.5.5zM238.1 220.9c-.3 0-.5-.2-.5-.5v-7.8c0-.3.2-.5.5-.5s.5.2.5.5v7.8c0 .3-.3.5-.5.5zm0-15.6c-.3 0-.5-.2-.5-.5V197c0-.3.2-.5.5-.5s.5.2.5.5v7.8c0 .3-.3.5-.5.5zm0-15.6c-.3 0-.5-.2-.5-.5v-7.8c0-.3.2-.5.5-.5s.5.2.5.5v7.8c0 .3-.3.5-.5.5zm0-15.6c-.3 0-.5-.2-.5-.5v-7.8c0-.3.2-.5.5-.5s.5.2.5.5v7.8c0 .3-.3.5-.5.5z"/></g><g><path fill="#F8F8FA" d="M161.5 239.8l-88.3-32.7 40-96.2 88.3 32.7z"/><path fill="#B5BDE9" d="M170.7 187.5a37.07 37.07 0 01-24.9 22.4 36.95 36.95 0 01-41.1-16c-6.1-9.6-7.7-21.9-3.2-33.3a36.98 36.98 0 0148-21.1 37.12 37.12 0 0121.2 48z"/><circle fill="#6D79AA" cx="141.1" cy="161.3" r="11.8"/><path fill="#6D79AA" d="M135.4 175.9c-2.9-1.1-5.2-3.2-6.6-5.6-9.2 1.1-18.5 8.9-23 20.5-.4 1-.8 2.1-1.1 3.1a36.95 36.95 0 0041.1 16c.5-1 .9-2 1.3-3 4.5-11.6 3-23.6-3.1-30.6-2.7.7-5.7.7-8.6-.4z"/><g><path fill="#F5AD9E" d="M78.3 212.6c4.1-2.6 14.3-7.2 19.4 4.1 0 0-1 3.8 0 5.6 0 0 1.1 3.1-1.3 6.6a5.7 5.7 0 01-4.8 2.4c-1.5 0-3.3.9-3 4.9 0 0-5.6 3-7.3 0 0 0-1.1-6.6-4.3-11.3-1.6-2.4-2.3-5.3-1.7-8.1v-.2c.4-1.6 1.5-3.1 3-4z"/><path fill="#4242F0" d="M79.8 230.6S69 221.5 78.1 212c1.6-1.7 3.8-2.7 6-3.5 6.4-2.2 10.9-1.2 13.9.9 0 0 6.1 5.8-2.8 8.3 0 0-3.5 1-.8 4.6 0 0 2.2 3.5-1.6 6.7-1 .8-1.5 2.2-1 3.4.2.4.4.8.8 1.1 0 0-.1 0-.2-.1-2.6-1-3.4-4.4-1.6-6.5.9-1.1.9-2.7 0-3.8-.9-1.1-1.7-2.6-1-3.9 0 0-3 1.3-2.4 4.1.5 2.3.1 4.9-1.5 6.6-1.4 1.4-3.5 2.5-6.1.7z"/><path fill="#555DFD" d="M71.2 209.6c-2.6.7-5 2.1-6.6 4.2-1.6 2.1-2.3 5-1.4 7.6.6 1.8 1.9 3.3 3 4.9 1.2 1.5 2.2 3.3 2.3 5.2.1 1.9-1.2 4-3.1 4.2-.7.1-1.4-.1-2.1 0-.7.1 1.8 3.8 11 2.3 3.7-.6 6-5.1 6.2-8.9.1-2.1-.6-4.2-1-6.2-.4-2.1-.6-4.3.3-6.2a4.9 4.9 0 012.8-2.5c1-.3 1.4-1.6.7-2.4l-.1-.1c-1-.8-2.2-1.3-3.4-1.7-2.8-1-5.8-1.2-8.6-.4z"/><path fill="#4734A9" d="M71.2 280.2l-8.5 76.3s2.3 1.9 5.6 0l18.9-73c0 .1-9.2.1-16-3.3z"/><path fill="#322C7C" d="M71.2 279.2s-3.1 10.2 8.3 17.1l9.9 60.3s4 1.7 6.4 0L91.9 282s-8.8 2.1-20.7-2.8z"/><path fill="#FFCD33" d="M97.4 242.6c.6 1.7.2 3.7-.4 5.4-1.1 2.9-2.5 5.7-3.3 8.6-1 3.6-.8 7.4-.7 11.2.2 4.5.3 9 .5 13.4 0 .4 0 .9-.2 1.2-.3.4-.7.5-1.2.6-7.4 1.5-15-.9-22.2-3.4.9-3.6 1.5-7.3 1.7-11 .6-9.6-1-19.8 3.4-28.3.8-1.5 1.7-2.9 3.2-3.8 3.1-1.9 7.3-.6 10.6.1 2.8.8 7.4 3 8.6 6z"/><path fill="#FFD96E" d="M107 248s-10.1-10.4-15.4-3.4c0 0-4.4 8.7 11 14 0 .1 4.7-9 4.4-10.6z"/><path fill="#F5AD9E" d="M106.4 250.4l9.5 3.3s6.4-11.8 8.3-16.3c0 0 2.7-6.5 2.1-8.8 0 0-.8-8.3 1.9-1.7l.8 3 2.7-1.1 5.7 1.9-8 6.7-6.9 21c-.7 2.3-2.7 3.9-5.1 4.1-1.2.1-2.7-.8-4.5-1.2l-9.8-3.6 3.3-7.3zM92.7 238.3l12.7-12.9s-2-6.3 0-6.8c0 0 .7.4 1.6 3.8l2.7-1.6 6.6 2-8.4 6.9-10.5 13c0-.1-.6-2.3-4.7-4.4zM89.4 356.6v6.8h6.4l-1.3-6-5.1-.8z"/><path fill="#2F2371" d="M89.4 363.4s5.7-9.3 17-1.4c.6.4.3 1.4-.4 1.4H89.4z"/><path fill="#F5AD9E" d="M62.8 356.6v6.8h8l-2.5-6.8z"/><path fill="#2F2371" d="M62.8 363.4s6.5-8.5 16.5-2.3c1.1.7.6 2.3-.6 2.3H62.8z"/></g></g><g><path fill="#904BE4" d="M13.1 434.4l-1.9-.9L47 363.3l74.9-1-29.8 72.1-2-.9 28.5-69-70.3.9z"/><path transform="rotate(77.76 55.22 399.13)" fill="#904BE4" d="M19.6 398.1h71.2v2.2H19.6z"/><path transform="rotate(77.36 128.29 397.88)" fill="#904BE4" d="M92.7 396.8h71.2v2.2H92.7z"/><path fill="#904BE4" d="M38.1 382h74.2v2.2H38.1zM27.8 401.7h76.4v2.2H27.8zM17.3 421.9h78.5v2.2H17.3z"/></g><circle fill="#FFCD33" cx="261.1" cy="164.7" r="8"/><circle fill="#00AEEE" cx="261.1" cy="222.5" r="8"/><circle fill="#904BE4" cx="261.1" cy="193.1" r="8"/><g><path fill="#B5BDE9" d="M276.7 152.7h59.6v1.8h-59.6zM276.7 156.7h59.6v1.8h-59.6zM276.7 160.7h59.6v1.8h-59.6zM276.7 164.7h59.6v1.8h-59.6zM276.7 168.7h59.6v1.8h-59.6zM276.7 172.7h59.6v1.8h-59.6z"/></g><g><path fill="#B5BDE9" d="M276.7 182.5h59.6v1.8h-59.6zM276.7 186.5h59.6v1.8h-59.6zM276.7 190.5h59.6v1.8h-59.6zM276.7 194.5h59.6v1.8h-59.6zM276.7 198.5h59.6v1.8h-59.6zM276.7 202.5h59.6v1.8h-59.6z"/></g><g><path fill="#B5BDE9" d="M276.1 212h59.6v1.8h-59.6zM276.1 215.9h59.6v1.8h-59.6zM276.1 219.9h59.6v1.8h-59.6zM276.1 223.9h59.6v1.8h-59.6zM276.1 227.9h59.6v1.8h-59.6zM276.1 231.9h59.6v1.8h-59.6z"/></g><g><path fill="#904BE4" d="M152.5 251.9h31.3v20.8h-31.3z"/><path fill="#A762F3" d="M183.8 251.9l-15.6 11.8-15.7-11.8z"/><g><path fill="#FFF" d="M183.8 251.9v.8L168.2 264l-15.7-11.4v-.7h.8l8.6 6.3 6.3 4.5 7.2-5.2 7.8-5.6z"/></g></g><g fill="#B5BDE9"><path d="M235.9 256.9h-44.3c-.8 0-1.5-.7-1.5-1.5v-.6c0-.8.7-1.5 1.5-1.5h44.3c.8 0 1.5.7 1.5 1.5v.6c0 .8-.6 1.5-1.5 1.5zM236.2 264.3h-44.8a.9.9 0 01-.9-.9v-.7c0-.5.4-.9.9-.9h44.8c.5 0 .9.4.9.9v.7c-.1.5-.5.9-.9.9zM236.2 269.3h-44.8a.9.9 0 01-.9-.9v-.7c0-.5.4-.9.9-.9h44.8c.5 0 .9.4.9.9v.7c-.1.5-.5.9-.9.9zM236.2 274.3h-44.8a.9.9 0 01-.9-.9v-.7c0-.5.4-.9.9-.9h44.8c.5 0 .9.4.9.9v.7c-.1.6-.5.9-.9.9z"/></g><g fill="#B5BDE9"><path d="M236.3 303.6H192c-.8 0-1.5-.7-1.5-1.5v-.6c0-.8.7-1.5 1.5-1.5h44.3c.8 0 1.5.7 1.5 1.5v.6c0 .8-.6 1.5-1.5 1.5zM236.6 311h-44.8a.9.9 0 01-.9-.9v-.7c0-.5.4-.9.9-.9h44.8c.5 0 .9.4.9.9v.7c-.1.6-.5.9-.9.9zM236.6 316.1h-44.8a.9.9 0 01-.9-.9v-.7c0-.5.4-.9.9-.9h44.8c.5 0 .9.4.9.9v.7c-.1.5-.5.9-.9.9zM236.6 321.1h-44.8a.9.9 0 01-.9-.9v-.7c0-.5.4-.9.9-.9h44.8c.5 0 .9.4.9.9v.7c-.1.5-.5.9-.9.9z"/></g><circle fill="#FFCD33" cx="183.7" cy="252.1" r="4.1"/><linearGradient id="SVGID_2_" gradientUnits="userSpaceOnUse" x1="154.54" y1="310.06" x2="181.63" y2="310.06"><stop offset="0" style="stop-color:#D568DD"/><stop offset="1" style="stop-color:#93278F"/></linearGradient><path fill="url(#SVGID_2_)" d="M181.5 308.1l-2.6-1.4c-.2-.7-.5-1.4-.9-2l1-2.8c0-.1 0-.2-.1-.3l-2.5-2.4c-.1-.1-.2-.1-.3-.1l-2.8.9c-.6-.3-1.2-.5-1.8-.7l-1.3-2.6c-.1-.1-.2-.2-.3-.2h-3.5c-.1 0-.2.1-.3.2l-1.4 2.7c-.7.2-1.3.5-1.9.8l-2.8-1c-.1 0-.2 0-.3.1l-2.4 2.5c-.1.1-.1.2-.1.3l.9 2.8c-.3.6-.6 1.2-.8 1.9l-2.6 1.2c-.1.1-.2.2-.2.3v3.5c0 .1.1.2.2.3l2.6 1.4c.2.8.6 1.5.9 2.2l-.9 2.8c0 .1 0 .2.1.3l2.5 2.4c.1.1.2.1.3.1l2.8-1c.5.3 1 .5 1.6.6l1.3 2.6c.1.1.2.2.3.2h3.5c.1 0 .2-.1.3-.2l1.4-2.7c.7-.2 1.4-.5 2.1-.9l2.8.9c.1 0 .2 0 .3-.1l2.4-2.5c.1-.1.1-.2.1-.3l-1-2.8c.3-.5.5-1.1.7-1.7l2.6-1.3c.1-.1.2-.2.2-.3v-3.5s0-.1-.1-.2zm-13.4 10.1c-4.5 0-8.1-3.6-8.1-8.1s3.6-8.1 8.1-8.1 8.1 3.6 8.1 8.1-3.6 8.1-8.1 8.1z"/><g><path fill="#F5AD9E" d="M495.6 315.8c-1.5 1.8-2.6 3.8-3.5 5.9l-3.2 8.1c-.9 2.3.5 4.8 2.8 5.2 1.6.3 3.5.5 5.7.3 0 0-2.5 2.5-4.4 3.9 0 0 3.5 5.7 11.2 1.6l2.5-8.1s11.2-8.1-.2-17.5c0 0-.9-.8-2.4-1.5-2.9-1.3-6.5-.5-8.5 2.1z"/><path fill="#170D54" d="M494.6 310.5s-1.3 5.6 4.4 7.8c1.7.7 2.9 2.3 2.8 4.1-.1 1-.3 2.3-1.1 3.7 0 0-1.5 4.3-3.5 4.7 0 0-3.7.4-4.1-1.2l-1.2-2.5-1.8-1.2s-2.3 2.1-3.5 8.5c0 0 2.7 3.6 12.1.8 0 0 2.8-.3 3.4-4 0 0 3.1-5.4 3.9-4.9 0 0 3.4 3-1.2 6.1l2.4 1.5s4.4-2.8 5.9-7.8c1.6-5-.6-10.6-5.2-13.1-1.3-.7-2.9-1.2-4.7-1.1.1.1-5.1.7-8.6-1.4z"/><path fill="#46A5FF" d="M493 339.3s-19.3 14.5-20.2 50.7l34.7 1.4s6.5-34.1-3.4-50.6c.1 0-7.8 3.8-11.1-1.5z"/><path fill="#49BDFF" d="M490.1 341.9l-4.3-3.2-6.8 6.4 3.5 7.2s4.8-7.7 7.6-10.4z"/><path fill="#F5AD9E" d="M485.8 338.7l-22.5-34.2-6.4-15.6-3.6-5s-2.1.5 1.7 6.6l.5 3.3s-2.2.7-2.8 2.9c0 0-2.2 1.6 4.9 9.5l21.5 38.8 6.7-6.3z"/><path fill="#49BDFF" d="M490.1 365.3s-.1-15.7 10-17.8c0 0 7.6.4 3.9 18.7 0 0-10.3 2.9-13.9-.9z"/><path fill="#4734A9" d="M503.9 391.4l-28.8 71.4c-.3.2-2.9 1.4-5.2.7-1.2-.4-1.9-1.2-2.3-1.6.4-8.2 1-16.7 1.8-25.4 1.2-14.4 3.1-32.4 5.7-46.5l28.8 1.4z"/><path fill="#322C7C" d="M483.2 390.5s16 65.6 18.9 71.2c0 0 4.7 2.1 8.3 0l-2.9-70.2-24.3-1z"/><path fill="#F5AD9E" d="M492.1 366.6l-3 16c-.3 1.6-.8 3.1-1.6 4.6l-6.5 12.7c-.5.9-1 1.7-1.7 2.5-1.8 1.9-5.1 6.7-1.5 13.4 0 0 1.4 1.3 3.8.8 1.1-.2 1.7-1.3 1.5-2.4-.5-2.2-.9-6.2 1.6-8.3 0 0 2-2.3 1.3-4.7l10.4-14.3c.8-1.2 1.4-2.6 1.8-4l4-16.1c-.1-.2-6 1.3-10.1-.2z"/><path fill="#2F2371" d="M503.2 465.3s-11.6 0-15.8 6.2c-.3.5 0 1.1.6 1.1l20.3-.6c1.3 0 2.2-1.1 2.2-2.3l-.1-4.3h-7.2z"/><path fill="#F5AD9E" d="M503.2 461.9v3.4s5 1.7 7.1 0l.2-3.6c0-.1-1.8.9-7.3.2z"/><path fill="#2F2371" d="M466.1 464.9s-9.4-1.7-15.4 3c-.5.4-.3 1.1.3 1.2l21.3 3.9c1 .2 1.9-.6 1.9-1.6V467l-8.1-2.1z"/><path fill="#F5AD9E" d="M467.6 462s0 1.4-1.6 2.9c0 0 3.3 4.5 8.1 2.1v-3.8c.1 0-4 1.9-6.5-1.2z"/></g><g><path fill="#403999" d="M223.1 342.5c.2 2.1-2.8 3.3-3.1 5.4-.4 2.6 3.2 4.5 2.7 7.1-.4 2.3-3.8 3.2-3.9 5.5 0 .6.2 1.4-.1 1.9-.2.3-.6.6-.9.7-3.6 1.7-8.2.8-11.2-1.8-1-.8-1.8-1.8-3-2.4-1.6-.8-3.5-.7-5.2-1.2-2.2-.6-4-2.2-5-4.2-.1-.3-.2-.6-.2-.9 0-1 1.1-1.5 2-2a6.3 6.3 0 002.9-4.2c.4-2.4-.6-4.9-1.1-7.3-.5-2.7 0-5.7 2-7.5 1.4-1.2 3.2-1.8 4.8-2.8 1.4-.9 2.4-2.2 3.5-3.5.5-.7 1.1-1.4 1.8-1.9 2.1-1.6 4.9-1.3 7.4-1 1.4.2 2.9.4 4.2 1 1.3.6 2.5 1.6 3 2.9 1.1 2.9-.9 5.8-1.1 8.6-.1 1.3 0 2.3-.3 3.6-.4 1.7.7 2.5.8 4z"/><path fill="#F5AD9E" d="M211.4 323c3.3-.9 8.6-1.5 11.7 2.7 1.5 2 2 4.7 1.5 7.2-.7 3.6-2.9 9.2-9.8 9 0 0-.9 2.9 0 6 0 0-5.8 2.2-7.7-2.1 0 0 .8-1.9 1.3-4 .5-2.2.1-4.4-.9-6.4-.8-1.6-1.7-4.4-.3-8.4.7-2 2.3-3.5 4.2-4z"/><path fill="#170D54" d="M214.5 331.7c-.5 0-1-.1-1.4-.3-.4-.2-.7-.6-1-.9-1.2-1-3.2-.8-4.2.4-.3.3-.5.8-.5 1.2 0 1.2 1.4 1.7 2.1 2.7.8 1 .8 2.4.4 3.5s-1.3 2.1-2.2 3c-1 1-2.2 2.2-2.2 3.6 0 1 .6 2.1.1 3-.7 1.1-2.5.7-3.6 1.3-1 .5-1.4 1.8-1.9 2.8-1.8 3.5-6.4 4.8-10.3 4.2-2.3-.3-4.8-1.4-5.8-3.5-.9-1.9-.4-4.4 1.2-5.9 1.5-1.5 3.8-2 5.9-1.6 1.3.3 2.7.9 3.8.1.7-.5 1-1.4 1-2.2.1-1.2-.2-2.4-.7-3.4-.5-1.1-1.4-2.1-1.8-3.2-.4-1.2-.3-2.7.8-3.3.9-.5 2.1-.2 3.1-.5s1.8-1.4 1.8-2.5c0-1.2-.9-2.2-1.1-3.4-.2-1.7 1.4-3.3 3-3.1.8.1 1.6.5 2.4.4 1-.1 1.8-1 2.2-2 .4-1 .6-2 1-3 1.3-2.6 5.1-3.7 7.5-2.1.6.4 1.2 1 1.8 1.3 2.9 1.7 6.8-.7 10 .5 1.6.6 2.8 2.1 3.2 3.8.5 1.7.3 3.4-.2 5.1-.2.7-.5 1.4-1 1.9-.8.9-2 1.2-3.1.9-.6-.6-1.1-2.5-1.8-2.9-.9-.4-1.9.9-2.5 1.4-1.7 1.6-3.7 2.7-6 2.7z"/><path fill="#EDA99C" d="M220.4 361.1s21.6 10.6 28.9 10.7c0 0 1 5.1-3.7 5.8l-4.6-4.4-24.8-6.7s.1-5.4 4.2-5.4z"/><path fill="#4545F1" d="M212.6 382.4l3.1 42.7 1.8 34.6s-4 3-7 0l-14-79.8c.1 0 1.6 4.3 16.1 2.5z"/><path fill="#5755F6" d="M196.6 379.9s-10.8 8.5-3.4 23.9l-17.9 56.9s3 3.3 5.7 1.7l23.2-50.5c4.3-9.4 7.2-19.3 8.6-29.5l.1-1c-.1 0-12.7 4-16.3-1.5z"/><path fill="#B260E9" d="M219 360.2l-4.1-12.3-7.7-2.1c-4.7 1-11.5 5.9-11.5 5.9 2.1 6.7.8 28.3.8 28.3 6 5.9 16.2 1.4 16.2 1.4l1-7.8c1.1-7.3 3.2-7.9 3.2-7.9 3.5-2.1 2.1-5.5 2.1-5.5z"/><path fill="#C180ED" d="M189.9 363.6s.3-12.2 7.7-12.3c0 0 7 1.2 2.6 14.1-.1 0-8.4 1.4-10.3-1.8z"/><path fill="#F6B0A4" d="M190.5 364.4s-2.4 11.9-1.4 16.1c0 0 .8 3.3 4.8 3.3l17.4-4.9 6.7-.9s2.4-.4 1.9-3l-.6-2.2s6.7-2.1 6.9-3.2c0 0 1.2-1.2-3.9-.3l-6.6 1.8-5.7 3.6-14.2 2 2.1-10.9c0-.1-5 .2-7.4-1.4z"/><path fill="#3C5162" d="M244 379.2h-32.8c-.4 0-.7.3-.7.7 0 .4.3.7.7.7H244c.4 0 .7-.3.7-.7 0-.4-.3-.7-.7-.7zM223.2 379.2l9.4-16.6h21.1l-9.7 16.6z"/><path fill="#F6B0A4" d="M246.2 370h.1c.2.1.3.2.4.4.5.6 1.3 1.8 1.7 2.4.7 1.1.3 2.3-.3 3.3-.3.5-1.9 2.8-2.6 2.3-.8-.5-2.6-3.1-2.5-3.9.1-1.1 1.7-4.9 3.2-4.5z"/><path fill="#F5AD9E" d="M212 460.7l1.9 7.5 3.7-.7v-7.8c-.1.1-1.7 2-5.6 1z"/><path fill="#2F2371" d="M213.4 466.9s3.1-4.5 9.5-4.8c0 0 2.8-.2 6.6.8.7.2 1.3.7 1.6 1.4.3.8.1 1.7-2.1 2.2l-14.5 2.7c-.4.1-.8-.2-.9-.6l-.2-1.7zM174.5 464.6s-.7.4-1.5 1c-1.2 1-1.4 2.8-.2 3.9.4.4.9.7 1.7.9l9.4 3c.9.3 1.9.5 2.9.4 1.5-.1 3-.8 1.3-3.4 0 0-3.4-4.2-8.5-5.5-.1.1-3.9-.5-5.1-.3z"/><path fill="#F5AD9E" d="M175.9 461.3l-1.4 3.3s1.6 2.7 4.8 1.3l.9-3.1c-.1.1-3.1.2-4.3-1.5z"/></g><g><path fill="#6D79AA" d="M461.5 21.5l34.3 20.2-4.3 7.1c-.2.4-.7.5-1 .2l-29-27.5z"/><path fill="#B0BFDE" d="M461.5 21.5L490.6 44l-.1 5z"/><path fill="#B5BDE9" d="M461.5 21.5L474 48.6c.4.8 1.6 1.8 2.5 1.5l14-6-29-22.6z"/><path fill="#B5BDE9" d="M461.5 21.5l43.1 13.6c.7.2.8 1.1.3 1.5l-9.1 5.1-34.3-20.2z"/></g><g><path fill="#170D54" d="M374.4 89.9c-.8-.9-1.6-1.9-1.6-3.2 0-1.4 1.1-2.6 2.3-3.3 1.2-.7 2.6-1.2 3.7-2.1 3-2.5 2.9-7.2 5.6-10 1.8-1.9 6.2-2.3 6.2-4.9 0-3.7.8-8.4.8-8.4.2-3.9 2.7-7.6 6.2-9.2 3.5-1.7 7.8-1.2 11.1.9 7.9 4.9 5.3 6.6 7.9 9.5 2.5 2.9 5.8 5.1 5.6 8.9-.1 2.4-1.8 5-.4 7 1.2 1.7 3.8 1.5 5.4 2.7 2.7 1.9 2 6.3 4.1 8.8.9 1 2.1 1.7 3.2 2.5s2.1 2 2.1 3.3c0 1.7-1.8 3.2-1.5 4.9.2 1.4 1.7 2.4 1.8 3.8.1 1.1-.6 2.1-1.6 2.7-.9.6-2 .7-3.1.9-4.7.7-9.7 1.5-14.3 0-2.3-.8-4.6-2.1-7.1-1.9-3.9.2-6.9 4-10.8 3.8-3.8-.2-6.7-4.1-10.5-4.2-3.6-.1-6.9 1.9-8.7-2.3-.6-1.5-.7-3-1.6-4.4-1.3-2.2-3.3-4-4.8-5.8z"/><ellipse transform="rotate(-22.43 403.38 63.2)" fill="#E1C6C3" cx="403.3" cy="63.2" rx="6.9" ry="10.4"/><path fill="#505089" d="M399.9 55.8c4.4 3.9 10.9 5.2 16.5 3.3-1.7-4-4.5-7.7-8.4-9.7-3.9-2-9-1.9-12.4.8-2.2 1.7-3.5 4.4-4.1 7.1-4.8 19.9 10.3.1 8.4-1.5z"/><path fill="#E1C6C3" d="M402.6 71.8s.2 4.7-2.2 7.3c0 0 4.6 4.2 10.8 0 0 0-2-1.9-2.2-7.9-.1 0-3.2 3.2-6.4.6z"/><path fill="#46A5FF" d="M382.1 95.8s5.4-13.7 11-14.8c0 0 6.2-2.6 7.2-1.9 0 0 4.3 4 10.8 0l7.2 3s4.6 3.1 7.2 10.8c0 0-3.9 3.9-7.9 5.2l-3.1-3.5s-.6 5.9.3 8.9h-21.7l-.2-8.9-2.6 4.5c.2 0-6.1.4-8.2-3.3z"/><path fill="#E1C6C3" d="M383.6 97.4l-3.7 9s-2.4 4.9 10.7 10.9l3-5.4s-8.2-2.9-6.9-6.8l3.9-6c-.1 0-5.6-.1-7-1.7zM417.7 98.1l5.9 6.1c.7.7.8 1.9.2 2.7-1.2 1.6-3.4 4.2-6 5.7l3.5 4.8s5.8-4.3 9.3-9.9c1-1.6.9-3.7-.1-5.2L425 94c-.2-.1-5.8 3-7.3 4.1z"/><path fill="#152144" d="M388.7 117.3v-14.9l30 .4v18.6h-30z"/><circle fill="#B5BDE9" cx="403.7" cy="111.9" r="2.3"/><path fill="#4545F1" d="M384.6 127.7l1.6 6.6s19.7-.1 43.1-9.3c0 0 12.7-5.3 9.8-10.4 0 0-1.8-6.2-21.4.4 0-.1-13.8 5.1-33.1 12.7z"/><path fill="#2F2371" d="M379.4 130.4s-6-3.9-15.4 2.6c0 0-5.9 4.2.2 6.6 1.7.7 3.5.9 5.3.6 3.3-.4 9.4-1.7 12.8-5.3-.1 0 1.8-1.6-2.9-4.5z"/><path fill="#E1C6C3" d="M384.9 129.1l-7.9 1.8s-4.9.9-5.7 3.6c0 0 2.4 3.3 6.9.9l8-1.2-1.3-5.1z"/><g><path fill="#5755F6" d="M421.2 128.2l-1.8 6.5s-19.6-.7-42.8-10.7c0 0-12.5-5.7-9.5-10.7 0 0 2-6.1 21.4 1.1 0 0 13.6 5.6 32.7 13.8z"/><path fill="#2F2371" d="M426.3 131.1s6.1-3.7 15.3 3.1c0 0 5.8 4.4-.4 6.6-1.7.6-3.5.8-5.3.5-3.3-.5-9.3-2-12.6-5.7 0-.2-1.9-1.8 3-4.5z"/><path fill="#E1C6C3" d="M420.8 129.6l7.9 2.1s4.9 1.1 5.6 3.8c0 0-2.5 3.2-6.9.7l-8-1.4 1.4-5.2z"/></g></g><g><path fill="#93A5CD" d="M316.7 108.7l-7.4-.1c-1.8 0-4-2.2-3.9-4v-.7c0-1.8 2.2-1.9 4-1.9l7.4.1c1.8 0 4 .1 4 1.9v.7c-.2 1.9-2.3 4-4.1 4z"/><ellipse transform="matrix(1 .00858 -.00858 1 .87 -2.68)" fill="#93A5CD" cx="313" cy="100.7" rx="9.7" ry="2.5"/><path fill="#4C567A" d="M313 103.1c-5.4 0-9.7-1.2-9.7-2.6v1.7c0 1.4 4.3 2.5 9.7 2.6 5.4 0 9.7-1 9.7-2.4v-1.7c0 1.4-4.3 2.5-9.7 2.4z"/><ellipse transform="matrix(1 .00857 -.00857 1 .85 -2.68)" fill="#93A5CD" cx="313.1" cy="97.5" rx="9.7" ry="2.5"/><path fill="#4C567A" d="M313 99.9c-5.4 0-9.7-1.2-9.7-2.6V99c0 1.4 4.3 2.5 9.7 2.6 5.4 0 9.7-1 9.7-2.4v-1.7c0 1.4-4.3 2.5-9.7 2.4z"/><ellipse transform="matrix(1 .00858 -.00858 1 .82 -2.68)" fill="#93A5CD" cx="313.1" cy="94.3" rx="9.7" ry="2.5"/><path fill="#4C567A" d="M313.1 96.7c-5.4 0-9.7-1.2-9.7-2.6v1.7c0 1.4 4.3 2.5 9.7 2.6 5.4 0 9.7-1 9.7-2.4v-1.7c0 1.4-4.4 2.5-9.7 2.4z"/><g><ellipse transform="matrix(1 .00858 -.00858 1 .8 -2.68)" fill="#93A5CD" cx="313.1" cy="91" rx="9.7" ry="2.5"/><path fill="#4C567A" d="M313.1 93.5c-5.4 0-9.7-1.2-9.7-2.6v1.7c0 1.4 4.3 2.5 9.7 2.6 5.4 0 9.7-1 9.7-2.4v-1.7c0 1.4-4.4 2.5-9.7 2.4z"/><defs><path id="SVGID_3_" d="M339.2 57.3c.2-27.3-25.5-26.4-25.5-26.4h-.1-.1s-25.7-1.3-25.9 26c0 0-.8 10.2 8.2 18.9.5.5 1 1.1 1.5 1.6 2.1 2.6 7.2 9.6 6.7 13.4 0 0 2 1.9 9.1 2h.2c7.1.1 9.1-1.8 9.1-1.8-.4-3.8 4.9-10.7 7-13.3.5-.6.9-1.1 1.5-1.6 9-8.6 8.3-18.8 8.3-18.8z"/></defs><clipPath id="SVGID_4_"><use xlink:href="#SVGID_3_" overflow="visible"/></clipPath><path clip-path="url(#SVGID_4_)" fill="#FFCD33" d="M339.2 57.3c.2-27.3-25.5-26.4-25.5-26.4h-.1-.1s-25.7-1.3-25.9 26c0 0-.8 10.2 8.2 18.9.5.5 1 1.1 1.5 1.6 2.1 2.6 7.2 9.6 6.7 13.4 0 0 2 1.9 9.1 2h.2c7.1.1 9.1-1.8 9.1-1.8-.4-3.8 4.9-10.7 7-13.3.5-.6.9-1.1 1.5-1.6 9-8.6 8.3-18.8 8.3-18.8z"/></g><g><path fill="#FFF" d="M308.2 92.5l-.6-23.7c-3.1-.3-6.1-1.1-8.1-3.1-1.6-1.6-2.3-3.7-2.3-6.4 0-2.6 2.2-4.8 4.9-4.8h3.1c2.3 0 4.2 1.9 4.3 4.2l.2 8.1c1.3.1 2.5.1 3.6.1h1.5v-7.8c0-1.2.5-2.4 1.3-3.2.9-.9 2-1.3 3.2-1.3h2.5a5.17 5.17 0 015.1 5.6c-.6 6.4-5 8.2-10 8.7v23.5h-2.1V69h-5l.6 23.5h-2.2zm-6.1-35.9c-1.5 0-2.7 1.2-2.7 2.7 0 2.1.5 3.7 1.7 4.9 1.5 1.5 4 2.2 6.5 2.5l-.2-7.9c0-1.2-1-2.1-2.2-2.1l-3.1-.1zm17.1.1c-.7 0-1.3.2-1.7.7-.5.5-.7 1.1-.7 1.7v7.7c5.3-.5 7.6-2.6 8-6.7.1-.9-.2-1.7-.8-2.3-.6-.6-1.4-1-2.2-1l-2.6-.1z"/></g><g><path fill="#FFCD33" d="M287.6 38.7c-5.3-3.7-10-8.6-13.5-14.1l1.8-1.1c3.4 5.2 7.9 9.9 13 13.5l-1.3 1.7z"/></g><g><path fill="#FFCD33" d="M309.1 26.2l-2.1.3c-1.4-8.6-2.6-17.3-3.4-26l2.1-.2c.9 8.7 2 17.4 3.4 25.9z"/></g><g><path fill="#FFCD33" d="M332.8 32.3l-1.6-1.3c5.8-7.1 12.6-13 20.2-17.4l1.1 1.8c-7.4 4.3-14 10-19.7 16.9z"/></g><g><path fill="#FFCD33" d="M363.4 49.7c-6.6 1.2-13 2.9-19.3 5.2l-.7-2c6.4-2.3 13-4.1 19.7-5.3l.3 2.1z"/></g><g><path fill="#FFCD33" d="M264.4 53.7c6.6 1.2 13 2.9 19.3 5.2l.7-2c-6.4-2.3-13-4.1-19.7-5.3l-.3 2.1z"/></g></g><ellipse transform="rotate(11.23 240.6 368.94)" fill="#B5BDE9" cx="240.6" cy="368.9" rx="1.5" ry="2"/></svg>