<?xml version="1.0" encoding="utf-8"?><!--Generator: Adobe Illustrator 17.1.0, SVG Export Plug-In . SVG Version: 6.00 Build 0)--><!DOCTYPE svg PUBLIC "-//W3C//DTD SVG 1.1//EN" "http://www.w3.org/Graphics/SVG/1.1/DTD/svg11.dtd"><svg version="1.1" id="Layer_1" xmlns="http://www.w3.org/2000/svg" x="0" y="0" viewBox="0 0 117.7 50.3" xml:space="preserve"><path fill-rule="evenodd" clip-rule="evenodd" fill="#FFF" d="M117.7-.5v45.6c-26.6 4.9-55.4 5.4-82.3 5.2-11.8-.2-23.6-.5-35.4-.9V-.5h117.7z"/><g fill-rule="evenodd" clip-rule="evenodd"><path fill="#CAE5F4" d="M8.3 11.4h40v18.5h-40z"/><path fill="#9EA9AE" d="M96.8 20.7h12.7V22H96.8z"/><path fill="#DBE0E3" d="M97.3 23.3h11.5v1.3H97.3zM96.6 25.8h12.7v1.3H96.6zM98.7 28.4h8.7v1.3h-8.7z"/><circle fill="#CAE5F4" cx="103.1" cy="11.7" r="6.4"/><path fill="#49596F" d="M105.1 13.1c-.5.5-1.2.8-2 .8s-1.5-.3-2-.8c-1.5.6-2.5 1.8-2.5 3.2a6.52 6.52 0 009 0c0-1.4-1.1-2.6-2.5-3.2z"/><circle fill="#49596F" cx="103.1" cy="11.1" r="2.1"/><circle fill="#49596F" cx="103.1" cy="33.6" r="1.3"/><circle fill="#B1D8E4" cx="97.9" cy="33.6" r="1.3"/><circle fill="#F5886C" cx="108.2" cy="33.6" r="1.3"/><path fill="#9EA9AE" d="M8.3 6.3h32v2.6h-32z"/><path fill="#CAE5F4" d="M53.5 7.1h12.9v1.3H53.5z"/><path fill="#DBE0E3" d="M53.5 14H82v1.3H53.5zM53.5 17.9h20.8v1.3H53.5zM53.5 21.7H82V23H53.5zM53.5 25.6h9.9v1.3h-9.9z"/><path fill="#FFDF7B" d="M81 25.6H67c-.5 0-.9.4-.9.9V29c0 .5.4.9.9.9h14c.5 0 .9-.4.9-.9v-2.5c.1-.5-.3-.9-.9-.9z"/><circle fill="#9EA9AE" cx="75.6" cy="7.6" r="1.3"/><circle fill="#9EA9AE" cx="70.4" cy="7.6" r="1.3"/><circle fill="#9EA9AE" cx="80.7" cy="7.6" r="1.3"/><path fill="#9EA9AE" d="M8.3 37.7h36.1v2.6H8.3z"/><path fill="#CAE5F4" d="M53.5 38.4h12.9v1.3H53.5z"/><path fill="#DBE0E3" d="M8.3 45.4H82v1.3H8.3zM74.3 49.7v-.5h-66v.4c9.1.3 18.1.5 27.1.6 12.7.2 25.8.1 38.9-.5z"/><circle fill="#9EA9AE" cx="75.6" cy="38.9" r="1.3"/><circle fill="#9EA9AE" cx="70.4" cy="38.9" r="1.3"/><circle fill="#9EA9AE" cx="80.7" cy="38.9" r="1.3"/><path fill="#49596F" d="M32.2 30l4.5-7.9 4.6 7.9z"/><path fill="#F5886C" d="M20.2 30l8.4-14.6L37 30z"/><path fill="#90CE9E" d="M15 30l6.1-10.6 6 10.6z"/></g><path opacity=".65" fill-rule="evenodd" clip-rule="evenodd" fill="#001346" d="M117.7-.5v45.6c-26.6 4.9-55.4 5.4-82.3 5.2-11.8-.2-23.6-.5-35.4-.9V-.5h117.7z"/></svg>