<?xml version="1.0" encoding="utf-8"?><!--Generator: Adobe Illustrator 17.1.0, SVG Export Plug-In . SVG Version: 6.00 Build 0)--><!DOCTYPE svg PUBLIC "-//W3C//DTD SVG 1.1//EN" "http://www.w3.org/Graphics/SVG/1.1/DTD/svg11.dtd"><svg version="1.1" id="Layer_1" xmlns="http://www.w3.org/2000/svg" x="0" y="0" viewBox="0 0 117.7 49.3" xml:space="preserve"><g fill-rule="evenodd" clip-rule="evenodd"><path fill="#FFF" d="M117.7 0v49.3C78.4 47.5 39 44.3 0 41.6V0h117.7z"/><path fill="#DBE0E3" d="M10.6 0H36v.3H10.6zM10.6 2.9h17.5v1.3H10.6zM10.6 6.7h21V8h-21z"/><path fill="#9EA9AE" d="M8 26h26.3v1.3H8z"/><path fill="#DBE0E3" d="M10.6 29.9h21.2v1.3H10.6zM10.6 33.7h18V35h-18zM10.6 37.6h18v1.3h-18z"/><path fill="#9EA9AE" d="M8 10.6h22.6v1.3H8z"/><path fill="#DBE0E3" d="M10.6 14.5h18v1.3h-18zM10.6 18.3h21.2v1.3H10.6zM10.6 22.2h19.3v1.3H10.6z"/><path fill="#CAE5F4" d="M46.8 0h67.9v14.7H46.8z"/><path fill="#49596F" d="M86.5 14.7l6.4-11.1 6.4 11.1z"/><path fill="#F5886C" d="M69.6 14.7L78.1 0h6.7l8.5 14.7z"/><path fill="#49596F" d="M62.3 14.7L70.8 0h.1l8.5 14.7z"/><path fill="#FFF" d="M107.1.9h3.9v3.9h-3.9zM50.6.9h3.9v3.9h-3.9z"/><path fill="#B1D8E4" d="M49.3 19.7h9.4v9.4h-9.4z"/><path transform="rotate(45.18 54 24.4)" fill="#FFF" d="M53.6 17.7h.8V31h-.8z"/><path transform="rotate(44.83 54 24.4)" fill="#FFF" d="M47.3 24h13.3v.8H47.3z"/><path fill="#9EA9AE" d="M47 31.7h14.1V33H47z"/><path fill="#49596F" d="M57.5 37.1h-7c-.3 0-.5-.2-.5-.5v-1.5c0-.3.2-.5.5-.5h7c.3 0 .5.2.5.5v1.5c0 .3-.2.5-.5.5zM75.5 37.1h-7c-.3 0-.5-.2-.5-.5v-1.5c0-.3.2-.5.5-.5h7c.3 0 .5.2.5.5v1.5c0 .3-.2.5-.5.5zM93.3 37.1h-7c-.3 0-.5-.2-.5-.5v-1.5c0-.3.2-.5.5-.5h7c.3 0 .5.2.5.5v1.5c0 .3-.2.5-.5.5zM111.2 37.1h-7c-.3 0-.5-.2-.5-.5v-1.5c0-.3.2-.5.5-.5h7c.3 0 .5.2.5.5v1.5c0 .3-.2.5-.5.5zM67.3 19.7h9.4v9.4h-9.4z"/><path transform="rotate(44.98 71.99 24.4)" fill="#FFF" d="M71.6 17.7h.8V31h-.8z"/><path transform="rotate(44.83 71.99 24.4)" fill="#FFF" d="M65.3 24h13.3v.8H65.3z"/><path fill="#9EA9AE" d="M64.9 31.7H79V33H64.9z"/><path fill="#90CE9E" d="M85.1 19.7h9.4v9.4h-9.4z"/><path transform="rotate(44.98 89.83 24.4)" fill="#FFF" d="M89.4 17.7h.8V31h-.8z"/><path transform="rotate(44.83 89.83 24.4)" fill="#FFF" d="M83.2 24h13.3v.8H83.2z"/><path fill="#9EA9AE" d="M82.8 31.7h14.1V33H82.8z"/><path fill="#FFDF7B" d="M103 19.7h9.4v9.4H103z"/><path transform="rotate(45.16 107.72 24.4)" fill="#FFF" d="M107.3 17.7h.8V31h-.8z"/><path transform="rotate(44.83 107.71 24.4)" fill="#FFF" d="M101.1 24h13.3v.8h-13.3z"/><path fill="#9EA9AE" d="M100.7 31.7h14.1V33h-14.1z"/><path fill="#90CE9E" d="M58.7 45.8v-3.5h-9.4v2.8c3.1.3 6.3.5 9.4.7z"/><path fill="#FFF" d="M54.9 45.6l3.5-3.5.6.5-3.1 3zM51.8 45.3L49 42.6l.6-.5 3.3 3.3z"/><path fill="#FFDF7B" d="M76.7 47v-4.7h-9.4v4.1l9.4.6z"/><path fill="#FFF" d="M71.8 46.7l4.6-4.6.6.5-4.2 4.2z"/><path fill="#FFF" d="M71.1 46.7L67 42.6l.5-.5 4.8 4.6z"/><path fill="#B1D8E4" d="M94.5 48.1v-5.8h-9.4v5.2l9.4.6z"/><path fill="#FFF" d="M88.5 47.8l5.8-5.7.5.5-5.2 5.2z"/><path fill="#FFF" d="M90.1 47.9l-5.3-5.3.6-.5 5.9 5.8z"/><path fill="#49596F" d="M112.4 49.1v-6.8H103v6.3c3.1.2 6.3.3 9.4.5z"/><path fill="#FFF" d="M105.4 48.7l6.8-6.6.5.5-6.2 6.2z"/><path fill="#FFF" d="M109.1 48.9l-6.4-6.3.6-.5 6.9 6.9z"/></g><path opacity=".65" fill-rule="evenodd" clip-rule="evenodd" fill="#001346" d="M117.7 0v49.3C78.4 47.5 39 44.3 0 41.6V0h117.7z"/></svg>