<?xml version="1.0" encoding="utf-8"?><!--Generator: Adobe Illustrator 17.1.0, SVG Export Plug-In . SVG Version: 6.00 Build 0)--><!DOCTYPE svg PUBLIC "-//W3C//DTD SVG 1.1//EN" "http://www.w3.org/Graphics/SVG/1.1/DTD/svg11.dtd"><svg version="1.1" id="Layer_1" xmlns="http://www.w3.org/2000/svg" x="0" y="0" viewBox="0 0 117.7 49.2" xml:space="preserve"><g fill-rule="evenodd" clip-rule="evenodd"><path fill="#FFF" d="M117.7 0v43.2c-7.9.7-15.7 1.5-23.6 2.2C62.3 48.3 32 49.8 0 48.9V0h117.7z"/><path fill="#CAE4F3" d="M112.2 43.7V14.6H5.5V49c30 .6 58.6-.9 88.5-3.6 6.1-.5 12.2-1.1 18.2-1.7z"/><path fill="#B0C5DA" d="M87.7 46l2.4-3.1 2.1 2.7c-1.5.1-3 .2-4.5.4z"/><path fill="#FAC1B3" d="M41.9 48.8l20.8-26.4 19 24.1c-13.4 1-26.6 1.8-39.8 2.3z"/><path fill="#FFF" d="M22 49.2l11-13.9 10.6 13.4c-7.2.3-14.4.4-21.6.5z"/><circle fill="#FFE79F" cx="98.2" cy="26.9" r="5.2"/><path fill="#FFF" d="M37.2 48.9V32.5c0-2.2 1.8-4 4-4h35.3c2.2 0 4 1.8 4 4v14c-14.5 1.2-28.9 2-43.3 2.4z"/><path fill="#9EA9AE" d="M44 5.3h7.4v1.3H44zM56.6 5.3H64v1.3h-7.4zM69.1 5.3h7.4v1.3h-7.4zM81.7 5.3h7.4v1.3h-7.4zM94.3 5.3h7.4v1.3h-7.4zM5.5 3.8H12v1H5.5zM5.5 6.1H12v1H5.5zM5.5 8.3H12v1H5.5z"/><path fill="#49596F" d="M48.4 32.1h20.9v2.6H48.4z"/><path fill="#DBE0E3" d="M43.2 37.2h31.4v1.3H43.2zM46.6 41.1h24.5v1.3H46.6zM44.9 44.9h27.9v1.3H44.9z"/><path fill="#49596F" d="M23.5 9.4l6.2-7.9 6.2 7.9z"/><path fill="#B1D8E4" d="M19.7 9.4L24 3.9l4.3 5.5z"/></g><path opacity=".65" fill-rule="evenodd" clip-rule="evenodd" fill="#001346" d="M117.7 0v43.2c-7.9.7-15.7 1.5-23.6 2.2C62.3 48.3 32 49.8 0 48.9V0h117.7z"/></svg>