<?xml version="1.0" encoding="utf-8"?><!--Generator: Adobe Illustrator 17.1.0, SVG Export Plug-In . SVG Version: 6.00 Build 0)--><!DOCTYPE svg PUBLIC "-//W3C//DTD SVG 1.1//EN" "http://www.w3.org/Graphics/SVG/1.1/DTD/svg11.dtd"><svg version="1.1" id="Layer_1" xmlns="http://www.w3.org/2000/svg" x="0" y="0" viewBox="0 0 117.7 42.1" xml:space="preserve"><g fill-rule="evenodd" clip-rule="evenodd"><path fill="#FFF" d="M117.7 0v41l-48.5-1.6c-14.3 0-28.4.2-42.3.9-9 .4-18 1-26.9 1.8V0h117.7z"/><path fill="#CAE5F4" d="M112.2 40.8V11.9H5.5v29.7c7.1-.6 14.2-1 21.4-1.3 13.9-.6 28-.9 42.3-.9l43 1.4z"/><path fill="#FFF" d="M21.1 17.7h19.8v19.7H21.1z"/><path fill="#49596F" d="M49.2 17.7h21.2v2.6H49.2z"/><path fill="#FFF" d="M49.2 24.1h47.7v1.3H49.2z"/><path fill="#DBE0E3" d="M36.3 5.3h7.4v1.3h-7.4zM48.8 5.3h7.4v1.3h-7.4zM61.4 5.3h7.4v1.3h-7.4zM74 5.3h7.4v1.3H74z"/><path fill="#9EA9AE" d="M5.5 3.8H12v1H5.5zM5.5 6.1H12v1H5.5zM5.5 8.3H12v1H5.5z"/><path fill="#FFF" d="M49.2 28h47.7v1.3H49.2zM49.2 31.9h40.7v1.3H49.2zM49.2 35.7h28.9V37H49.2z"/><path fill="#B1D8E4" d="M33.5 40H21v.6l5.9-.3 6.6-.3z"/><path transform="rotate(45.24 30.98 27.57)" fill="#CAE5F4" d="M30.3 13.6h1.3v28h-1.3z"/><path transform="rotate(44.81 30.99 27.57)" fill="#CAE5F4" d="M17 26.9h28v1.3H17z"/></g><path opacity=".65" fill-rule="evenodd" clip-rule="evenodd" fill="#001346" d="M117.7 0v41l-48.5-1.6c-14.3 0-28.4.2-42.3.9-9 .4-18 1-26.9 1.8V0h117.7z"/></svg>